<svg width="24" height="24" viewBox="0 0 24 24" fill="none" xmlns="http://www.w3.org/2000/svg">
<rect width="24" height="24" rx="8" fill="#F5F7FA"/>
<path fill-rule="evenodd" clip-rule="evenodd" d="M17.7693 6.93889C17.7693 5.65772 16.717 4.61914 15.4189 4.61914H12.0001C11.6461 4.61914 11.3591 4.90239 11.3591 5.2518C11.3591 5.60121 11.6461 5.88446 12.0001 5.88446H15.4189C16.0089 5.88446 16.4872 6.35654 16.4872 6.93889V7.78243C16.4872 8.13184 16.7742 8.41509 17.1283 8.41509C17.4823 8.41509 17.7693 8.13184 17.7693 7.78243V6.93889ZM17.1283 15.5852C16.7742 15.5852 16.4872 15.8685 16.4872 16.2179V17.0614C16.4872 17.6437 16.0089 18.1158 15.4189 18.1158H12.0001C11.6461 18.1158 11.3591 18.3992 11.3591 18.7485C11.3591 19.0979 11.6461 19.3812 12.0001 19.3812H15.4189C16.717 19.3812 17.7693 18.3426 17.7693 17.0614V16.2179C17.7693 15.8685 17.4823 15.5852 17.1283 15.5852Z" fill="#2B3886"/>
<path fill-rule="evenodd" clip-rule="evenodd" d="M11.359 5.98881C11.359 5.25442 10.6173 4.74495 9.91949 5.00001L5.64599 6.56213C5.22691 6.71533 4.94874 7.10982 4.94874 7.55092V16.4497C4.94874 16.8908 5.22691 17.2853 5.64599 17.4385L9.91949 19.0007C10.6173 19.2557 11.359 18.7462 11.359 18.0118V5.98881ZM9.47424 3.81346C11.0094 3.25233 12.641 4.37314 12.641 5.98881V18.0118C12.641 19.6275 11.0094 20.7483 9.47424 20.1872L5.20074 18.6251C4.27866 18.288 3.66666 17.4202 3.66666 16.4497V7.55092C3.66666 6.58049 4.27866 5.71262 5.20074 5.37558L9.47424 3.81346Z" fill="#2B3886"/>
<path fill-rule="evenodd" clip-rule="evenodd" d="M17.5297 9.86597C17.78 9.6189 18.1859 9.6189 18.4362 9.86597L20.1456 11.5531C20.396 11.8002 20.396 12.2007 20.1456 12.4477L18.4362 14.1348C18.1859 14.3819 17.78 14.3819 17.5297 14.1348C17.2793 13.8878 17.2793 13.4872 17.5297 13.2402L18.1448 12.6331H14.5641C14.2101 12.6331 13.9231 12.3498 13.9231 12.0004C13.9231 11.651 14.2101 11.3677 14.5641 11.3677H18.1448L17.5297 10.7607C17.2793 10.5136 17.2793 10.113 17.5297 9.86597Z" fill="#2B3886"/>
</svg>
