<svg width="24" height="24" viewBox="0 0 24 24" fill="none" xmlns="http://www.w3.org/2000/svg">
<rect width="24" height="24" rx="8" fill="#F5F7FA"/>
<path d="M5.33337 18.6667V17.8333C5.33337 15.5322 7.19886 13.6667 9.50004 13.6667H12.625M14.5 7.83333C14.5 9.67428 13.0076 11.1667 11.1667 11.1667C9.32576 11.1667 7.83337 9.67428 7.83337 7.83333C7.83337 5.99238 9.32576 4.5 11.1667 4.5C13.0076 4.5 14.5 5.99238 14.5 7.83333Z" stroke="#2B3886" stroke-width="1.5" stroke-linecap="round" stroke-linejoin="round"/>
<path fill-rule="evenodd" clip-rule="evenodd" d="M16.9705 14.0279C16.7677 13.6871 16.324 13.5602 15.9741 13.767L15.4536 14.0649C15.0697 14.2844 14.9395 14.7765 15.1588 15.156L15.159 15.1563C15.2721 15.3515 15.2544 15.4762 15.2191 15.5375C15.1837 15.5988 15.0848 15.6765 14.8599 15.6765C14.4173 15.6765 14.0603 16.0381 14.0603 16.4761V17.0072C14.0603 17.4452 14.4173 17.8068 14.8599 17.8068C15.0848 17.8068 15.1837 17.8845 15.2191 17.9458C15.2544 18.0071 15.2721 18.1318 15.159 18.327L15.1588 18.3272C14.9395 18.7068 15.0698 19.199 15.4537 19.4185L15.9741 19.7163C16.324 19.923 16.7677 19.7962 16.9705 19.4554L17.0051 19.3957C17.1182 19.2005 17.2356 19.1533 17.3067 19.1533C17.3775 19.1533 17.4939 19.2001 17.6056 19.3949L17.6061 19.3957L17.6393 19.4531L17.6406 19.4554C17.8434 19.7962 18.2871 19.923 18.637 19.7163L19.1575 19.4184C19.5417 19.1988 19.6711 18.7101 19.4528 18.3282L19.4521 18.327C19.339 18.1318 19.3568 18.0071 19.3921 17.9458C19.4274 17.8845 19.5263 17.8068 19.7512 17.8068C20.1938 17.8068 20.5508 17.4452 20.5508 17.0072V16.4761C20.5508 16.0335 20.1892 15.6765 19.7512 15.6765C19.5263 15.6765 19.4274 15.5988 19.3921 15.5375C19.3568 15.4762 19.339 15.3515 19.4521 15.1563L19.4523 15.156C19.6716 14.7764 19.5414 14.2842 19.1574 14.0648L18.637 13.767C18.2872 13.5602 17.8434 13.6871 17.6406 14.0279L17.6061 14.0876C17.4929 14.2828 17.3756 14.33 17.3044 14.33C17.2336 14.33 17.1172 14.2832 17.0055 14.0884L17.0051 14.0876L16.9719 14.0302L16.9705 14.0279ZM18.2093 16.7416C18.2093 17.2416 17.804 17.6469 17.3041 17.6469C16.8041 17.6469 16.3988 17.2416 16.3988 16.7416C16.3988 16.2417 16.8041 15.8364 17.3041 15.8364C17.804 15.8364 18.2093 16.2417 18.2093 16.7416Z" fill="#2B3886"/>
</svg>
