<svg width="24" height="24" viewBox="0 0 24 24" fill="none" xmlns="http://www.w3.org/2000/svg">
<rect width="24" height="24" rx="8" fill="#F5F7FA"/>
<path d="M12 14.0833V15.75M7.83337 10.3573C8.22622 10.3333 8.71053 10.3333 9.33337 10.3333H14.6667C15.2895 10.3333 15.7739 10.3333 16.1667 10.3573M7.83337 10.3573C7.34311 10.3872 6.99528 10.4546 6.6984 10.6058C6.22799 10.8455 5.84554 11.2279 5.60586 11.6983C5.33337 12.2332 5.33337 12.9332 5.33337 14.3333V15.5C5.33337 16.9002 5.33337 17.6002 5.60586 18.135C5.84554 18.6054 6.22799 18.9878 6.6984 19.2275C7.23317 19.5 7.93324 19.5 9.33337 19.5H14.6667C16.0669 19.5 16.7669 19.5 17.3017 19.2275C17.7721 18.9878 18.1545 18.6054 18.3942 18.135C18.6667 17.6002 18.6667 16.9002 18.6667 15.5V14.3333C18.6667 12.9332 18.6667 12.2332 18.3942 11.6983C18.1545 11.2279 17.7721 10.8455 17.3017 10.6058C17.0048 10.4546 16.657 10.3872 16.1667 10.3573M7.83337 10.3573V8.66667C7.83337 6.36548 9.69886 4.5 12 4.5C14.3012 4.5 16.1667 6.36548 16.1667 8.66667V10.3573" stroke="#2B3886" stroke-width="1.5" stroke-linecap="round" stroke-linejoin="round"/>
</svg>
