<svg width="138" height="95" viewBox="0 0 138 95" fill="none" xmlns="http://www.w3.org/2000/svg">
<g clip-path="url(#clip0_143_20314)">
<path d="M115.191 17.0745C126.204 23.9672 125.53 52.9722 123.816 66.6143H127.466C132.773 37.8953 126.359 22.8659 122.489 18.941L115.191 17.0745Z" fill="#1A1A1A"/>
<path d="M136.13 64.6053C138.014 49.5988 137.459 22.5977 122.171 18.5813" stroke="#1A1A1A" stroke-width="1.903" stroke-linecap="round"/>
<path d="M136.814 67.0964L82.6394 63.6236C82.594 63.6206 82.5485 63.6271 82.5057 63.6425C82.4628 63.6579 82.4236 63.6821 82.3904 63.7134C82.3573 63.7448 82.3309 63.7826 82.3128 63.8247C82.2948 63.8668 82.2855 63.9121 82.2856 63.9579V69.4776C82.2855 69.5631 82.318 69.6455 82.3763 69.7076C82.4346 69.7698 82.5144 69.8071 82.5992 69.8118L136.774 72.953C136.819 72.9556 136.864 72.9489 136.907 72.9333C136.949 72.9177 136.988 72.8935 137.021 72.8622C137.054 72.8309 137.08 72.7932 137.098 72.7513C137.116 72.7094 137.125 72.6643 137.125 72.6187V67.4298C137.125 67.3447 137.093 67.2627 137.035 67.2006C136.977 67.1385 136.898 67.1018 136.814 67.0964Z" stroke="#1A1A1A" stroke-width="1.903" stroke-linecap="round"/>
<path d="M98.2412 70.965V94.0614" stroke="#1A1A1A" stroke-width="1.903" stroke-linecap="round"/>
<path d="M87.272 70.4636V86.362" stroke="#1A1A1A" stroke-width="1.903" stroke-linecap="round"/>
<path d="M4.35134 79.1421C11.6531 84.3284 59.581 70.8868 81.9545 63.7688L36.2555 65.6099C20.9489 67.5169 -2.95131 73.9567 4.35134 79.1421Z" fill="#1A1A1A" stroke="#1A1A1A" stroke-width="1.903" stroke-linecap="round"/>
<path d="M5.84311 86.8643L3.1853 77.9941" stroke="#1A1A1A" stroke-width="1.903" stroke-linecap="round"/>
<path d="M82.2873 69.292C69.4541 76.0599 36.0852 89.8041 5.84399 86.9928" stroke="#1A1A1A" stroke-width="1.903" stroke-linecap="round"/>
<path d="M76.3044 5.69385C87.3392 13.7275 86.6632 47.5343 84.946 63.4345H88.6022C93.9195 29.9619 87.4938 12.4441 83.6167 7.87005L76.3044 5.69385Z" fill="#1A1A1A"/>
<path d="M122.171 18.5804L60.1855 1.17603" stroke="#1A1A1A" stroke-width="1.903" stroke-linecap="round"/>
<path d="M75.8075 62.4299C78.3544 40.2263 77.6356 -3.10956 54.3704 1.17512C49.4958 2.01165 39.0812 7.50141 36.4216 22.7647" stroke="#1A1A1A" stroke-width="1.903" stroke-linecap="round"/>
<path d="M36.4792 65.1471L55.5329 44.7661" stroke="#1A1A1A" stroke-width="1.903" stroke-linecap="round"/>
<path d="M36.6312 21.6653C39.5868 7.23582 49.6145 1.99059 54.3703 1.17429C66.682 -1.09339 72.6806 9.97674 75.2214 24.1924C75.2476 24.3412 75.2397 24.4941 75.1983 24.6394C75.157 24.7846 75.0832 24.9185 74.9827 25.0307C74.8822 25.143 74.7576 25.2306 74.6184 25.287C74.4792 25.3434 74.3291 25.3671 74.1794 25.3562L37.5282 22.8404C37.3889 22.8315 37.2532 22.7927 37.13 22.7266C37.0069 22.6605 36.8993 22.5686 36.8143 22.4571C36.7293 22.3456 36.669 22.2171 36.6375 22.0803C36.6059 21.9434 36.6037 21.8013 36.6312 21.6635V21.6653Z" fill="#1A1A1A"/>
<path d="M29.166 23.1387L55.5319 44.7661L64.3508 52.0187C64.5334 52.1688 64.7628 52.2489 64.9985 52.2449C65.2341 52.2409 65.4608 52.1529 65.6382 51.9967L76.3611 42.553" stroke="#1A1A1A" stroke-width="1.903" stroke-linecap="round"/>
<path d="M29.7284 22.8273L73.8884 25.7388C74.25 25.7626 74.5723 25.9772 74.7094 26.3167C77.7463 33.8261 76.927 52.4576 76.0527 61.7957C76.0303 62.0312 75.9255 62.251 75.757 62.4158C75.5885 62.5806 75.3674 62.6798 75.133 62.6956L36.9385 65.3943C36.7376 65.4098 36.537 65.3625 36.3638 65.2589C36.1906 65.1554 36.0533 65.0005 35.9707 64.8155C32.7129 57.46 27.1841 40.0997 28.6803 23.721C28.705 23.4639 28.8283 23.2267 29.0241 23.0599C29.2199 22.8931 29.4726 22.8091 29.7284 22.8273Z" stroke="#1A1A1A" stroke-width="1.903" stroke-linecap="round"/>
<path d="M30.4386 47.5351C24.1238 47.5351 23.6548 47.0742 17.3417 46.0046C16.85 45.9219 16.3748 46.2157 16.1958 46.6845C14.0428 52.3203 6.45805 61.6928 2.02196 53.7277C0.746771 51.4407 -0.537153 44.8575 4.5147 36.8239C9.45387 28.9688 14.3721 32.5286 16.3495 35.4543C16.4368 35.5845 16.4884 35.734 16.5015 35.8906C16.7128 38.3702 16.4316 42.5071 14.6175 45.8621C13.5843 47.7726 12.0532 49.429 9.83206 50.3807C3.58363 53.0583 3.51725 45.8621 5.51126 42.0128C6.50871 39.8366 8.33677 37.8284 10.9963 39.8366C13.1563 41.8457 11.3282 44.021 10.1648 45.5278" stroke="#1A1A1A" stroke-width="1.903" stroke-linecap="round"/>
<path d="M6.67285 56.78L33.5951 59.4172" stroke="#1A1A1A" stroke-width="1.903" stroke-linecap="round"/>
<path d="M10.1658 45.5261L14.6185 45.8604" stroke="#1A1A1A" stroke-width="1.903" stroke-linecap="round"/>
<path d="M28.6114 35.6513C22.4625 35.6513 22.6293 35.6513 12.4924 32.3043" stroke="#1A1A1A" stroke-width="1.903" stroke-linecap="round"/>
</g>
<defs>
<clipPath id="clip0_143_20314">
<rect width="138" height="95" fill="white"/>
</clipPath>
</defs>
</svg>
