<svg width="103" height="95" viewBox="0 0 103 95" fill="none" xmlns="http://www.w3.org/2000/svg">
<path d="M55.2798 55.0594C55.1825 53.7114 55.1825 52.3581 55.2798 51.0101C55.4638 50.3679 55.5132 49.6946 55.4248 49.0324C55.3364 48.3703 55.1122 47.7336 54.7661 47.1621C54.4201 46.5907 53.9597 46.0969 53.4139 45.7118C52.868 45.3266 52.2485 45.0584 51.5942 44.9239C49.5816 44.3905 49.5816 42.6931 49.8241 41.1413C50.2363 38.4013 48.9269 37.7466 46.4779 37.0677C40.1978 35.3219 33.9419 36.3645 27.686 36.704C21.8634 37.2644 16.015 35.9383 11.0036 32.9214C8.57884 31.321 5.71762 32.1454 3.05037 31.9272C2.17746 31.9272 0.96505 32.3394 0.940803 30.739C0.916555 29.1387 2.10469 29.5024 3.0261 29.4539C6.98886 28.9719 10.9992 29.8252 14.4225 31.8787C18.2095 34.1679 22.6901 35.0279 27.0555 34.3034C35.7298 33.3182 44.5093 33.8516 53.0005 35.8796C53.8574 36.0864 54.7448 36.1356 55.6193 36.0251C56.3495 35.9687 57.0458 35.6932 57.6169 35.2346C58.188 34.776 58.6073 34.1557 58.82 33.4548C59.2807 32 58.2865 31.03 57.2924 30.3026C54.7602 28.3192 51.6976 27.1296 48.4905 26.8837C46.1869 26.6169 43.8592 26.52 41.5314 26.326C39.8952 26.1055 38.3322 25.5091 36.965 24.5837C35.5978 23.6582 34.4635 22.4287 33.6509 20.9915C33.4316 20.7312 33.2996 20.4086 33.2735 20.0693C33.2474 19.7299 33.3285 19.3909 33.5054 19.1002C34.6614 17.3043 36.4126 15.9727 38.452 15.3387C40.4914 14.7047 42.689 14.8088 44.6593 15.6328C48.7822 17.1188 52.2276 20.0474 54.3584 23.877C55.6435 26.5685 58.4563 27.6596 60.2991 29.7691C61.0265 30.5936 61.7054 30.2541 62.2874 29.7691C62.8693 29.2842 64.0575 28.2901 63.4028 27.0777C61.1195 22.271 58.5193 17.6213 55.6193 13.1595C54.6001 11.9755 53.2871 11.0807 51.8124 10.565C46.7689 8.38274 41.6769 6.20043 36.6819 3.87265C35.4883 3.2589 34.1573 2.96115 32.816 3.00784C31.4746 3.05453 30.1676 3.44408 29.0196 4.13934C23.0304 7.29154 16.8958 10.0316 10.7126 12.9655C7.92412 14.3234 4.99017 13.7172 2.12895 13.8142C1.32878 13.8142 0.892334 13.4505 0.892334 12.5776C0.892334 11.7046 1.28028 11.2924 2.12895 11.3409C12.1917 12.0198 19.6842 5.47301 28.1467 1.76312C29.4359 1.03171 30.8755 0.605485 32.3551 0.517214C33.8347 0.428943 35.3149 0.680995 36.6819 1.25394C42.4286 3.84844 48.1995 6.29744 53.9705 8.81919C56.4278 10.0311 58.4021 12.0396 59.5717 14.5173C61.4872 18.009 63.2815 21.525 65.1244 25.0409C65.5272 25.6183 65.7996 26.2765 65.9224 26.9698C66.0453 27.6631 66.0156 28.3748 65.8357 29.0555C65.6557 29.7362 65.3296 30.3695 64.8802 30.9115C64.4307 31.4535 63.8687 31.8911 63.233 32.1939C62.4814 32.7031 61.3417 32.7758 61.3417 34.0852C61.3417 35.3946 62.5056 35.5644 63.33 35.8069C66.458 36.7525 65.7548 39.2742 65.9245 41.5293C66.0153 41.9821 66.0141 42.4487 65.9209 42.901C65.8276 43.3534 65.6443 43.7824 65.3819 44.1625C65.1195 44.5426 64.7832 44.8659 64.3932 45.1134C64.0033 45.3608 63.5674 45.5273 63.1118 45.6029C61.075 46.1121 60.5415 47.4457 60.687 49.4582C60.8325 53.6288 60.687 57.7994 60.687 61.97C60.687 63.9098 60.1051 65.8012 58.1168 65.8739C56.1285 65.9467 55.2071 64.0068 55.2071 61.97C55.2071 59.9332 55.2798 57.2902 55.2798 55.0594Z" fill="#1A1A1A"/>
<path d="M70.4585 84.4723C74.5321 84.7633 78.6057 83.3327 82.5824 84.2541C87.4319 85.3695 89.5172 89.5158 92.2814 92.8862C92.7179 93.4197 92.1359 93.9531 91.6752 94.3411C91.2145 94.7291 90.6568 94.3411 90.2931 93.8804C88.8868 92.2558 87.4562 90.6797 86.1225 89.0309C85.2823 87.9438 84.1592 87.1087 82.8763 86.6169C81.5933 86.1251 80.1999 85.9955 78.8482 86.2424C71.283 87.3093 63.742 86.0727 56.2009 86.0727C55.6218 86.0844 55.0458 85.9856 54.5036 85.7817C44.2711 81.7081 33.5294 78.9924 23.8303 73.5367C22.7392 72.9305 21.4055 72.591 20.4356 71.912C19.4657 71.2331 17.4289 71.4028 17.8654 69.4873C17.9328 68.5058 18.328 67.5754 18.9876 66.8455C19.6472 66.1155 20.5329 65.6283 21.5025 65.4621C22.9393 65.3932 24.3051 64.8177 25.3579 63.8376C25.8512 63.4327 26.4384 63.1582 27.0655 63.0396C27.6926 62.921 28.3394 62.9619 28.9466 63.1587C30.7552 63.4545 32.5272 63.9421 34.2326 64.6135C41.0219 67.8384 48.3932 68.9781 55.5947 70.7239C58.8493 71.4643 62.264 70.9169 65.1241 69.1963C71.9675 65.5932 79.9247 64.7264 87.3834 66.7715C92.9846 68.1052 97.0825 71.7908 101.423 75.2582C101.61 75.3751 101.769 75.5332 101.886 75.7204C102.003 75.9076 102.076 76.1191 102.1 76.3387C102.123 76.5584 102.096 76.7805 102.021 76.9882C101.945 77.1959 101.824 77.3838 101.665 77.5375C100.744 78.5074 100.332 77.2223 99.8709 76.8343C94.1243 71.8393 87.9411 68.0324 79.9151 67.9597C75.5458 67.7967 71.2068 68.748 67.3064 70.7239C65.014 72.0985 62.4404 72.9368 59.7782 73.1761C57.116 73.4155 54.4341 73.0496 51.9333 72.106C50.4828 71.5643 48.9474 71.2851 47.399 71.2816C46.711 71.1921 46.0157 71.3793 45.4656 71.8021C44.9155 72.2249 44.5556 72.8488 44.4651 73.5367C44.2468 75.1855 45.7502 75.2097 46.7443 75.6704C52.995 78.4618 59.6974 80.1045 66.5304 80.5199C67.4518 80.5199 68.9552 80.2532 68.9552 81.8536C68.9552 83.4539 67.3306 82.775 66.5304 82.7265C59.1108 82.3333 51.8312 80.5484 45.0713 77.4648C43.6407 76.8101 42.1615 76.2039 42.1131 74.2641C42.1495 73.9732 42.0749 73.6792 41.9041 73.441C41.7333 73.2027 41.4788 73.0377 41.1916 72.9789C35.3722 72.1788 30.5711 68.1294 24.6547 67.7657L23.1999 67.6202C22.23 67.6202 21.0661 67.6202 20.7751 68.6871C20.4841 69.754 21.8178 70.0934 22.5937 70.4572C31.6555 74.803 40.9668 78.6085 50.4785 81.8536C57.2436 83.9631 63.9602 83.4054 70.4585 84.4723Z" fill="#1A1A1A"/>
<path d="M45.8474 23.7319C44.3318 24.0786 42.7533 24.0381 41.2575 23.6144C39.7616 23.1906 38.3965 22.3972 37.2879 21.3071C36.8272 20.8464 36.124 20.2887 36.706 19.6098C37.2879 18.9308 38.1124 17.6942 38.961 18.2034C41.3858 19.7068 44.3682 20.7009 45.8474 23.7319Z" fill="white"/>
<path d="M51.8374 24.556C48.0547 24.2893 47.9092 20.4824 45.533 19.27C46.9747 19.4688 48.331 20.0702 49.4462 21.0053C50.5614 21.9403 51.3902 23.1711 51.8374 24.556Z" fill="white"/>
<path d="M58.4801 37.5046C59.2803 37.2137 59.6197 37.5047 59.644 38.0624C59.6779 38.3012 59.662 38.5445 59.5972 38.7769C59.5324 39.0093 59.4201 39.2257 59.2675 39.4125C59.1148 39.5993 58.9251 39.7525 58.7103 39.8624C58.4955 39.9722 58.2602 40.0363 58.0194 40.0507C57.3162 40.0507 56.4918 39.7839 56.4191 39.1293C56.2736 37.5774 58.1164 38.2806 58.4801 37.5046Z" fill="white"/>
<path d="M42.3077 70.0692C36.7064 70.3601 33.1663 66.9412 28.8259 65.9228C33.5057 65.7774 37.4581 67.9839 42.3077 70.0692Z" fill="white"/>
</svg>
