<svg width="20" height="20" viewBox="0 0 20 20" fill="none" xmlns="http://www.w3.org/2000/svg">
<path d="M12.9966 2.98991C12.9469 2.83675 12.8383 2.70966 12.6949 2.63656C12.5513 2.56338 12.3848 2.55035 12.2315 2.60013L9.69165 3.4255C9.37278 3.52912 9.19817 3.87162 9.30187 4.19048L9.4288 4.58131L2.96807 9.32703L0.419513 10.1551C0.266355 10.2049 0.139263 10.3134 0.0661643 10.4569C-0.00693383 10.6003 -0.0200478 10.767 0.0297367 10.9201L1.57824 15.685C1.66161 15.9416 1.89961 16.1047 2.15549 16.1047C2.21774 16.1047 2.28097 16.095 2.3433 16.0748L4.89145 15.2468L6.20066 15.2536C6.46359 16.4951 7.56775 17.4296 8.88627 17.4296C10.1948 17.4296 11.2916 16.5091 11.5653 15.2819L12.908 15.2889L13.035 15.6799C13.0847 15.833 13.1932 15.9601 13.3368 16.0332C13.4229 16.0771 13.5174 16.0993 13.6124 16.0993C13.6755 16.0993 13.7389 16.0895 13.8 16.0696L16.3399 15.2443C16.6588 15.1407 16.8334 14.7982 16.7298 14.4794L12.9966 2.98991ZM2.54535 14.7323L1.37222 11.1222L2.85879 10.6392L4.03176 14.2493L2.54535 14.7323ZM8.88619 16.2153C8.24571 16.2153 7.69671 15.8197 7.46851 15.2604L10.2984 15.2753C10.0666 15.8269 9.52108 16.2153 8.88619 16.2153ZM5.23857 14.0343L4.60003 12.0691L3.9615 10.1038L9.82384 5.79775L11.6217 11.3306L12.5126 14.0727L5.23857 14.0343ZM14.0021 14.7272L13.9275 14.4979L13.9272 14.4965L12.3232 9.55992L10.6443 4.39262L12.0294 3.94245L15.3872 14.277L14.0021 14.7272Z" fill="currentColor"/>
<path d="M15.0415 5.94121C15.1299 5.98622 15.2239 6.00751 15.3167 6.00751C15.5377 6.00751 15.7508 5.8864 15.8581 5.67593L16.9478 3.53803C17.1001 3.23933 16.9814 2.87368 16.6827 2.72141C16.3839 2.56922 16.0183 2.68781 15.866 2.9866L14.7764 5.1245C14.624 5.42329 14.7428 5.78894 15.0415 5.94121Z" fill="currentColor"/>
<path d="M19.6041 11.7145L17.4659 10.6253C17.1671 10.4732 16.8015 10.592 16.6493 10.8907C16.497 11.1895 16.616 11.5551 16.9147 11.7073L19.0529 12.7965C19.1412 12.8414 19.2353 12.8627 19.328 12.8627C19.549 12.8627 19.7622 12.7415 19.8694 12.531C20.0217 12.2323 19.9029 11.8668 19.6041 11.7145Z" fill="currentColor"/>
<path d="M16.5338 8.19249C16.6172 8.44902 16.8552 8.61214 17.111 8.61214C17.1733 8.61214 17.2365 8.6025 17.2988 8.58226L19.5807 7.84076C19.8995 7.73714 20.0741 7.39464 19.9704 7.0757C19.8668 6.75675 19.5243 6.58255 19.2053 6.68592L16.9235 7.42743C16.6047 7.53112 16.4302 7.87363 16.5338 8.19249Z" fill="currentColor"/>
</svg>
