<svg width="20" height="20" viewBox="0 0 20 20" fill="none" xmlns="http://www.w3.org/2000/svg">
<path d="M6.21387 1.15039C6.60732 1.15039 6.92676 1.46892 6.92676 1.8623V2.9082H13.3037V1.86914L13.3184 1.72656C13.3846 1.40178 13.6722 1.15723 14.0166 1.15723C14.4098 1.15735 14.7283 1.47606 14.7285 1.86914V2.9082H17L17.1895 2.91699C18.1221 3.01179 18.8495 3.79955 18.8496 4.75684V17.001C18.8496 18.0222 18.0216 18.8496 17 18.8496H3C1.97835 18.8496 1.15044 18.0222 1.15039 17.001V4.75684C1.15049 3.73563 1.97838 2.9082 3 2.9082H5.50098L5.50195 1.8623L5.51562 1.71875C5.58198 1.39417 5.86963 1.1505 6.21387 1.15039ZM2.5752 17.001C2.57525 17.2355 2.76527 17.4258 3 17.4258H17C17.2347 17.4258 17.4248 17.2355 17.4248 17.001V8.13574L2.5752 8.12402V17.001ZM7.18359 13.9414V15.5996H5.52539V13.9414H7.18359ZM10.8291 13.9414V15.5996H9.1709V13.9414H10.8291ZM14.4746 13.9414V15.5996H12.8164V13.9414H14.4746ZM7.18359 10.4619V12.1191H5.52539V10.4619H7.18359ZM10.8291 10.4619V12.1191H9.1709V10.4619H10.8291ZM14.4746 10.4619V12.1191H12.8164V10.4619H14.4746ZM2.91406 4.34082C2.72055 4.38052 2.57528 4.55179 2.5752 4.75684V6.7002L17.4248 6.71094V4.75684C17.4247 4.55179 17.2794 4.38052 17.0859 4.34082L17 4.33203H14.7285V5.04492L14.7148 5.18848C14.6484 5.51297 14.3608 5.75673 14.0166 5.75684C13.6232 5.75684 13.3037 5.43827 13.3037 5.04492V4.33203H6.92676V5.03711L6.91211 5.18066C6.84577 5.50536 6.55824 5.75 6.21387 5.75C5.82052 5.74987 5.50195 5.43041 5.50195 5.03711L5.50098 4.33203H3L2.91406 4.34082Z" fill="currentColor" stroke="currentColor" stroke-width="0.2"/>
</svg>
