<svg width="20" height="20" viewBox="0 0 20 20" fill="none" xmlns="http://www.w3.org/2000/svg">
<path fill-rule="evenodd" clip-rule="evenodd" d="M15.7695 4.93877C15.7695 3.6576 14.7172 2.61902 13.4191 2.61902H10.0003C9.6463 2.61902 9.3593 2.90227 9.3593 3.25168C9.3593 3.60109 9.6463 3.88434 10.0003 3.88434H13.4191C14.0091 3.88434 14.4875 4.35642 14.4875 4.93877V5.78231C14.4875 6.13172 14.7745 6.41497 15.1285 6.41497C15.4825 6.41497 15.7695 6.13172 15.7695 5.78231V4.93877ZM15.1285 13.5851C14.7745 13.5851 14.4875 13.8684 14.4875 14.2178V15.0613C14.4875 15.6436 14.0091 16.1157 13.4191 16.1157H10.0003C9.6463 16.1157 9.3593 16.399 9.3593 16.7484C9.3593 17.0978 9.6463 17.381 10.0003 17.381H13.4191C14.7172 17.381 15.7695 16.3425 15.7695 15.0613V14.2178C15.7695 13.8684 15.4825 13.5851 15.1285 13.5851Z" fill="currentColor"/>
<path fill-rule="evenodd" clip-rule="evenodd" d="M9.35862 3.98844C9.35862 3.25405 8.61696 2.74459 7.91912 2.99964L3.64563 4.56176C3.22654 4.71496 2.94838 5.10945 2.94838 5.55055V14.4494C2.94838 14.8905 3.22654 15.285 3.64563 15.4381L7.91912 17.0003C8.61696 17.2554 9.35862 16.7459 9.35862 16.0115V3.98844ZM7.47388 1.81309C9.00904 1.25196 10.6406 2.37278 10.6406 3.98844V16.0115C10.6406 17.6271 9.00904 18.748 7.47388 18.1868L3.20038 16.6247C2.27829 16.2876 1.66629 15.4198 1.66629 14.4494V5.55055C1.66629 4.58013 2.27829 3.71225 3.20038 3.37521L7.47388 1.81309Z" fill="currentColor"/>
<path fill-rule="evenodd" clip-rule="evenodd" d="M15.5293 7.8656C15.7796 7.61853 16.1855 7.61853 16.4359 7.8656L18.1453 9.55271C18.3956 9.7998 18.3956 10.2003 18.1453 10.4474L16.4359 12.1345C16.1855 12.3815 15.7796 12.3815 15.5293 12.1345C15.279 11.8875 15.279 11.4869 15.5293 11.2398L16.1444 10.6327H12.5638C12.2097 10.6327 11.9227 10.3495 11.9227 10C11.9227 9.65063 12.2097 9.36738 12.5638 9.36738H16.1444L15.5293 8.7603C15.279 8.51321 15.279 8.11267 15.5293 7.8656Z" fill="currentColor"/>
</svg>
