<svg width="26" height="25" viewBox="0 0 26 25" fill="none" xmlns="http://www.w3.org/2000/svg">
<path d="M16.6147 17.6584L18.4221 19.4434L22.0368 15.8733M13 14.9808H9.38528C7.70103 14.9808 6.85891 14.9808 6.19463 15.2526C5.30891 15.6149 4.60523 16.3099 4.23835 17.1847C3.9632 17.8408 3.9632 18.6725 3.9632 20.3359M16.1629 4.53002C17.4876 5.05963 18.4221 6.34233 18.4221 7.84061C18.4221 9.33888 17.4876 10.6216 16.1629 11.1512M14.3555 7.84061C14.3555 9.81232 12.7371 11.4107 10.7408 11.4107C8.74445 11.4107 7.12608 9.81232 7.12608 7.84061C7.12608 5.86889 8.74445 4.27051 10.7408 4.27051C12.7371 4.27051 14.3555 5.86889 14.3555 7.84061Z" stroke="#2B3886" stroke-width="1.5" stroke-linecap="round" stroke-linejoin="round"/>
</svg>
