<svg width="24" height="24" viewBox="0 0 24 24" fill="none" xmlns="http://www.w3.org/2000/svg">
<path d="M12 14.6667H8.4C6.72261 14.6667 5.88392 14.6667 5.22234 14.9373C4.34024 15.2982 3.63941 15.9904 3.27403 16.8616C3 17.515 3 18.3433 3 20M15.15 4.25845C16.4693 4.78591 17.4 6.06339 17.4 7.55556C17.4 9.04772 16.4693 10.3252 15.15 10.8526M15 20L17.5 17.5M17.5 17.5L20 15M17.5 17.5L15 15M17.5 17.5L20 20M13.35 7.55556C13.35 9.51924 11.7382 11.1111 9.75 11.1111C7.76177 11.1111 6.15 9.51924 6.15 7.55556C6.15 5.59188 7.76177 4 9.75 4C11.7382 4 13.35 5.59188 13.35 7.55556Z" stroke="#2B3886" stroke-width="1.5" stroke-linecap="round" stroke-linejoin="round"/>
</svg>
