<svg width="107" height="107" viewBox="0 0 107 107" fill="none" xmlns="http://www.w3.org/2000/svg">
<circle cx="53.5" cy="53.5" r="53.5" fill="#DC3545" fill-opacity="0.05"/>
<circle cx="53.5" cy="53.5" r="38.5" fill="#DC3545" fill-opacity="0.1"/>
<path fill-rule="evenodd" clip-rule="evenodd" d="M65.5385 43.8778C65.5385 41.3154 63.4338 39.2383 60.8376 39.2383H54C53.292 39.2383 52.718 39.8048 52.718 40.5036C52.718 41.2024 53.292 41.7689 54 41.7689H60.8376C62.0177 41.7689 62.9743 42.7131 62.9743 43.8778V45.5649C62.9743 46.2637 63.5483 46.8302 64.2564 46.8302C64.9645 46.8302 65.5385 46.2637 65.5385 45.5649V43.8778ZM64.2564 61.1705C63.5483 61.1705 62.9743 61.737 62.9743 62.4358V64.1228C62.9743 65.2875 62.0177 66.2316 60.8376 66.2316H54C53.292 66.2316 52.718 66.7983 52.718 67.497C52.718 68.1958 53.292 68.7623 54 68.7623H60.8376C63.4338 68.7623 65.5385 66.6851 65.5385 64.1228V62.4358C65.5385 61.737 64.9645 61.1705 64.2564 61.1705Z" fill="#DC3545"/>
<path fill-rule="evenodd" clip-rule="evenodd" d="M52.718 41.9766C52.718 40.5079 51.2346 39.4889 49.839 39.999L41.292 43.1233C40.4538 43.4297 39.8975 44.2187 39.8975 45.1009V62.8985C39.8975 63.7807 40.4538 64.5697 41.292 64.876L49.839 68.0003C51.2346 68.5105 52.718 67.4915 52.718 66.0227V41.9766ZM48.9485 37.6259C52.0188 36.5037 55.282 38.7453 55.282 41.9766V66.0227C55.282 69.254 52.0188 71.4957 48.9485 70.3733L40.4015 67.2492C38.5573 66.575 37.3333 64.8393 37.3333 62.8985V45.1009C37.3333 43.16 38.5573 41.4243 40.4015 40.7502L48.9485 37.6259Z" fill="#DC3545"/>
<path fill-rule="evenodd" clip-rule="evenodd" d="M65.0593 49.731C65.56 49.2368 66.3717 49.2368 66.8724 49.731L70.2912 53.1052C70.7919 53.5993 70.7919 54.4003 70.2912 54.8945L66.8724 58.2687C66.3717 58.7628 65.56 58.7628 65.0593 58.2687C64.5586 57.7747 64.5586 56.9735 65.0593 56.4793L66.2895 55.2652H59.1282C58.4202 55.2652 57.8462 54.6987 57.8462 53.9998C57.8462 53.301 58.4202 52.7345 59.1282 52.7345H66.2895L65.0593 51.5203C64.5586 51.0262 64.5586 50.2251 65.0593 49.731Z" fill="#DC3545"/>
</svg>
