<svg width="220" height="126" viewBox="0 0 220 126" fill="none" xmlns="http://www.w3.org/2000/svg">
<g clip-path="url(#clip0_289_32816)">
<path d="M49.2865 101.206C37.0025 99.3589 24.8459 96.9888 13.9165 90.6801C7.74558 87.1249 2.35035 82.7099 0.416874 75.3091C-0.4283 72.0792 0.0579642 69.0236 1.34309 66.0145C4.60801 58.3929 10.5705 53.2693 17.4593 49.2377C29.5117 42.1855 42.6872 38.1423 56.3257 35.5514C58.3287 35.168 60.2158 33.5415 62.3924 34.9821C63.2145 36.3996 62.2419 37.573 61.8367 38.8046C56.4531 55.2095 58.456 70.5921 68.0308 84.9755C68.355 85.4518 68.6907 85.9282 69.3159 86.207C68.4476 84.3946 67.3014 82.7332 66.3289 80.9788C58.236 66.3282 57.3098 51.2826 63.7934 35.8187C64.2333 34.7614 64.5343 33.588 65.6805 32.9954C67.7182 32.5888 69.7443 32.066 71.7936 31.7174C72.9398 31.5315 74.0744 31.3805 74.8385 32.5655C75.1164 34.3548 74.0396 35.7257 73.2639 37.1199C70.1032 42.8593 68.6444 49.168 68.6792 55.5232C68.737 65.7357 71.8746 75.1697 78.7981 82.9539C86.011 91.0635 94.9722 95.9315 105.867 96.9655C106.747 97.0469 107.569 97.2676 108.368 97.651C109.433 98.2203 110.648 97.9299 111.76 98.2552C112.223 98.383 112.779 98.5805 112.86 99.0684C112.964 99.6958 112.512 100.126 111.957 100.416C111.25 100.776 110.463 100.776 109.711 100.893C104.281 101.752 98.7697 101.741 93.3513 102.635C91.1052 103.146 89.2528 102.054 87.4467 101.009C84.5638 99.3473 81.5999 97.8253 78.856 95.8502C79.6317 97.2211 80.9284 98.0112 82.1325 98.8826C82.9545 99.4751 84.1123 99.7772 84.0775 101.113C83.2439 101.973 82.3061 102.391 81.0326 102.368C74.7806 102.298 68.5286 102.356 62.2767 102.31C61.2463 102.298 60.2043 101.822 59.1738 101.834C58.074 101.834 56.5341 101.067 56.1289 103.007C54.4385 102.775 54.3922 101.206 53.8481 100.079C53.3618 99.0684 53.1997 97.9182 52.5051 96.8842C50.7105 97.8834 51.5904 100.776 49.2865 101.206Z" fill="#E0E0E0" fill-opacity="0.4"/>
<path d="M189.18 30.7998C188.775 31.8803 189.435 31.9036 190.268 32.1824C197.817 34.7384 205.227 37.6197 211.699 42.4645C213.875 44.0911 215.878 45.95 217.43 48.1343C221.331 53.6065 220.845 58.428 215.508 64.5509C209.163 71.8355 200.526 75.8206 191.912 79.6662C180.485 84.7666 168.514 88.2637 156.461 91.5052C154.065 92.1442 151.576 92.4928 149.202 93.2363C148.079 93.5849 147.628 93.0504 147.014 92.4811C146.667 91.3309 147.5 90.6687 148.114 89.9832C156.554 80.4795 160.595 69.1633 161.104 56.6388C161.324 51.306 160.537 45.9268 158.43 40.8728C158.742 44.126 159.668 47.2745 160.039 50.5276C161.614 64.3301 157.631 76.4712 149.364 87.3807C147.083 90.3899 144.432 93.0504 141.434 95.3625C140.426 96.1409 139.465 96.9193 138.099 96.9077C132.646 97.2446 127.286 98.2787 121.913 99.1616C118.533 99.7193 115.279 99.9401 112.084 98.5459C112.142 97.1633 112.142 97.082 113.879 96.9774C119.471 96.6405 124.692 95.0023 129.497 92.2372C142.325 84.8596 149.723 73.9268 150.893 58.9392C151.726 48.2388 148.797 38.7235 142.36 30.2189C141.735 29.394 140.936 28.604 141.051 27.4073C143.726 25.3741 146.771 25.7459 149.804 26.0828C151.101 27.3376 152.456 27.5583 153.926 26.35C158.117 26.5475 162.308 26.687 166.476 27.1168C167.368 27.2098 168.143 27.5002 168.792 28.116C168.664 30.428 168.676 30.4048 171.269 31.7293C173.735 32.984 175.646 34.7965 176.734 37.4106C177.058 38.1774 177.128 39.1185 178.274 39.8388C180.196 34.75 183.067 30.6953 189.18 30.7998Z" fill="#E0E0E0" fill-opacity="0.4"/>
<path d="M67.9382 25.1997C62.1493 25.5366 56.673 27.3839 51.162 28.8827C38.8896 32.2171 26.6636 35.7956 14.8427 40.5707C14.7038 40.6288 14.4838 40.5126 14.2522 40.4661C13.9859 39.2462 15.0164 38.7931 15.6879 38.2586C25.61 30.3117 36.1341 23.3408 47.7003 18.008C48.7539 17.52 50.2358 17.3574 50.4095 15.7425C51.382 15.5914 51.5325 16.6371 52.5514 17.1831C53.3618 13.8603 56.3141 12.8379 58.8381 11.2927C59.7411 12.1873 60.3663 12.7682 62.0451 12.1292C72.7776 7.98146 83.846 4.84453 95.2384 3.14826C108.889 1.11507 122.608 -0.604435 136.455 0.197225C146.782 0.789756 156.959 2.67191 166.939 5.43706C178.32 8.58561 189.632 12.013 200.167 17.5433C201.522 18.252 202.83 19.0885 204.057 19.9947C204.717 20.4827 205.62 21.0985 205.308 22.086C204.972 23.1549 203.907 23.2943 202.934 23.3524C198.986 23.6313 195.085 23.0852 191.195 22.5391C188.451 22.1557 185.753 21.4703 183.009 21.1217C181.944 20.9823 180.381 20.3665 179.964 22.2952C178.644 21.5167 177.73 19.7159 175.738 20.6105C165.596 18.6238 155.419 16.9508 145.034 17.3342C143.46 17.2993 142.406 16.2072 141.283 15.3358C132.264 8.35324 121.914 4.64702 110.706 4.56569C97.4729 4.46113 85.5363 8.85283 75.6489 17.9964C73.6691 19.8205 71.7241 21.7142 70.0453 23.8404C69.5012 24.5259 68.9454 25.223 67.9382 25.1997Z" fill="#E0E0E0" fill-opacity="0.4"/>
<path d="M67.9381 25.2002C75.6026 15.2666 85.3047 8.28404 97.5655 5.41433C114.365 1.47574 129.566 5.05416 143.066 15.8591C143.587 16.2774 144.131 16.6492 144.664 17.0442C148.415 19.5421 151.518 22.621 153.231 26.9081C152.062 30.3936 151.078 27.5355 150.024 26.8152C146.713 23.8641 144.235 20.065 140.519 17.5206C139.581 16.8815 138.69 16.1612 137.729 15.5455C128.988 9.43425 119.204 6.39026 108.645 6.82014C96.0257 7.31972 84.8185 11.7347 75.8226 20.9944C75.1511 21.6799 74.3522 22.2492 73.7386 22.9928C70.5779 25.967 68.9222 30.0915 65.9931 33.2517C58.3865 48.0185 58.5602 62.8899 65.4721 77.8193C66.6877 80.445 68.2392 82.8965 69.9064 85.2782C70.3926 85.9753 71.9672 86.7654 70.5084 87.8691C68.818 89.1471 68.6096 87.1372 68.1234 86.4284C57.5182 71.1388 55.2953 54.7222 61.663 37.1786C61.9293 36.4583 62.1493 35.7264 62.3924 34.9944C64.2217 31.7064 65.6226 28.1861 67.9381 25.2002Z" fill="#28A745"/>
<path d="M49.2863 101.207C50.3515 99.9173 50.4557 98.1978 51.2082 96.7803C51.9145 95.4442 52.6439 95.328 53.3617 96.8036C54.3574 98.8484 54.6005 101.23 56.1403 103.031C57.9928 106.551 61.3156 107.992 64.7889 109.282C65.7035 109.619 67.1739 109.607 67.2202 110.931C67.2665 112.291 65.8193 112.395 64.8931 112.674C59.139 114.347 55.5151 118.065 53.8595 123.816C53.6048 124.687 53.4659 125.954 52.3197 126.035C51.0345 126.116 51.0114 124.78 50.7683 123.932C49.0779 117.926 45.1878 114.208 39.2484 112.511C38.3801 112.267 37.1297 112.163 37.2339 110.862C37.3265 109.804 38.4496 109.781 39.2484 109.502C43.5785 107.945 47.5844 105.994 49.2863 101.207Z" fill="#FFC107"/>
<path d="M138.296 96.4198C144.652 92.7368 149.144 87.2297 152.733 81.014C159.738 68.8961 161.451 55.9882 157.712 42.4181C157.608 42.0463 157.48 41.6746 157.399 41.3028C157.226 40.443 156.392 39.409 158.001 39.014C159.437 38.6654 159.286 39.897 159.495 40.6057C163.2 53.165 162.424 65.4339 157.133 77.4123C154.644 83.0355 151.008 87.8804 147.014 92.4812C139.651 99.4289 131.234 104.436 121.254 106.597C109.965 109.037 99.0474 107.98 88.5233 103.17C87.0413 102.496 85.5594 101.811 84.0774 101.125C82.1324 99.7426 80.1873 98.3833 78.2654 96.9775C77.6865 96.5592 76.8645 96.199 77.5476 95.1766C78.3233 94.0264 78.9485 94.7235 79.6432 95.2347C83.6375 98.2206 87.7823 100.916 92.6218 102.345C96.6509 102.636 100.437 104.146 104.477 104.587C113.219 105.528 121.462 103.937 129.543 100.719C132.588 99.4986 135.066 97.2098 138.296 96.4198Z" fill="#28A745"/>
<path d="M176.607 20.6222C177.579 18.9376 178.482 18.4031 179.235 20.7733C179.408 21.3077 179.698 21.7957 179.941 22.3069C180.844 25.5948 183.206 27.3608 186.205 28.5807C187.339 29.0455 189.064 28.8944 189.18 30.7998C184.352 32.1011 180.474 34.4363 179.188 39.7459C179.038 40.3616 178.853 41.2446 178.042 41.233C177.07 41.2214 176.942 40.2222 176.757 39.5367C175.646 35.6098 173.249 32.9608 169.359 31.6712C168.479 31.3807 167.148 31.3575 167.009 30.3119C166.847 29.1152 168.467 29.3359 169.046 28.6156C172.635 26.9774 174.673 23.8521 176.607 20.6222Z" fill="#FFC107"/>
<path d="M58.838 11.2934C59.0001 11.7465 59.2317 12.3042 58.5833 12.4668C55.2952 13.3033 53.5586 15.6851 52.6324 18.7988C50.9999 18.1598 51.5209 16.3822 50.4094 15.7316C49.5064 13.5009 47.1561 13.2685 44.8984 11.944C48.1055 10.666 50.5368 9.13239 51.6714 5.9606C52.2156 4.42699 52.9913 5.87927 53.2344 6.55313C54.1722 9.27181 56.0362 10.8287 58.838 11.2934Z" fill="#FFC107"/>
<path d="M141.202 27.4419C147.431 35.0054 151.263 43.5099 151.854 53.4319C153.22 76.1689 136.119 96.0128 113.485 97.8369C112.825 97.895 112.188 98.0693 111.54 98.1971C110.255 98.7431 108.97 98.778 107.685 98.1855C101.375 97.3606 95.2616 95.9431 89.6233 92.7714C68.8876 81.0834 61.802 55.0701 73.7849 34.4477C74.1207 33.8668 74.4101 33.2626 74.7112 32.6817C74.607 31.6129 75.2669 30.8693 75.8689 30.1257C78.4508 26.9075 81.1137 23.7705 84.4944 21.3307C97.4614 12.373 111.297 10.4095 126.082 16.1257C130.991 18.3332 135.622 20.9821 139.396 24.9207C140.125 25.6643 141.028 26.3033 141.202 27.4419Z" fill="#28A745"/>
<path d="M138.412 15.2085C136.119 16.777 133.48 16.1845 130.956 16.4168C129.37 16.5679 127.702 15.9172 126.197 16.8816C111.389 11.2467 97.5077 13.2567 84.4712 22.0749C81.2989 20.7504 78.5086 23.0973 75.4405 23.0857C74.6069 23.0857 73.8081 23.3064 73.0439 22.8301C89.5191 3.67159 118.811 0.650847 138.412 15.2085Z" fill="#E0E0E0" fill-opacity="0.4"/>
<path d="M105.16 73.9266C103.1 73.8918 102.139 73.2412 101.224 72.5208C97.496 69.6163 93.8258 66.6536 90.0515 63.8187C88.8243 62.8893 88.8243 62.2735 89.7042 61.0885C93.2354 56.325 93.1543 56.3482 97.8086 59.8569C99.7652 61.3324 101.652 64.2486 103.771 63.7723C105.6 63.354 106.874 60.3333 108.344 58.4395C113.195 52.2005 118.07 45.9847 122.863 39.6992C123.928 38.3051 124.599 37.8636 126.197 39.1648C130.539 42.6851 130.62 42.6038 127.239 46.949C120.918 55.0934 114.573 63.2262 108.263 71.3822C107.244 72.7067 106.214 73.9615 105.16 73.9266Z" fill="white"/>
<path d="M110.162 21.0059C112.767 20.9827 115.349 21.2383 117.873 21.9121C118.544 22.0864 119.529 22.0864 119.193 23.3063C118.903 24.352 118.243 24.2474 117.398 24.0615C111.042 22.6209 104.79 23.0507 98.6539 25.2001C97.9361 25.4557 97.2182 25.9437 96.7436 24.8516C96.1763 23.5387 97.2646 23.3993 98.0055 23.1204C101.942 21.6449 105.983 20.913 110.162 21.0059Z" fill="white"/>
</g>
<defs>
<clipPath id="clip0_289_32816">
<rect width="220" height="126" fill="white"/>
</clipPath>
</defs>
</svg>
