<svg width="32" height="32" viewBox="0 0 32 32" fill="none" xmlns="http://www.w3.org/2000/svg">
<circle cx="16" cy="16" r="15.5" stroke="#E0E0E0"/>
<path d="M11.8333 14.334V13.5007C11.8333 11.1995 13.6988 9.33398 16 9.33398C18.3012 9.33398 20.1667 11.1995 20.1667 13.5007V14.334C22.0076 14.334 23.5 15.8264 23.5 17.6673C23.5 18.9012 22.8297 20.0077 21.8333 20.584M11.8333 14.334C9.99238 14.334 8.5 15.8264 8.5 17.6673C8.5 18.9012 9.17033 20.0077 10.1667 20.584M11.8333 14.334C12.194 14.334 12.5414 14.3913 12.8667 14.4972M16 16.0007V23.5007M16 16.0007L18.5 18.5007M16 16.0007L13.5 18.5007" stroke="#AAAAAA" stroke-width="1.5" stroke-linecap="round" stroke-linejoin="round"/>
</svg>
